<?xml version="1.0" encoding="utf-8"?>
<!-- Generator: Adobe Illustrator 22.1.0, SVG Export Plug-In . SVG Version: 6.00 Build 0)  -->
<svg version="1.1" id="Layer_1" xmlns="http://www.w3.org/2000/svg" xmlns:xlink="http://www.w3.org/1999/xlink" x="0px" y="0px"
	 viewBox="0 0 512 512" style="enable-background:new 0 0 512 512;" xml:space="preserve">
<style type="text/css">
	.st0{fill:#FFFFFF;}
</style>
<g>
	<g>
		<path class="st0" d="M17.1,2.9C15.2,1,12.7,0,10,0S4.8,1,2.9,2.9C1,4.8,0,7.3,0,10s1,5.2,2.9,7.1C4.8,19,7.3,20,10,20
			s5.2-1,7.1-2.9C19,15.2,20,12.7,20,10S19,4.8,17.1,2.9z M10,18.8c-4.8,0-8.8-3.9-8.8-8.8S5.2,1.2,10,1.2s8.8,3.9,8.8,8.8
			S14.8,18.8,10,18.8z"/>
		<polygon class="st0" points="8,5.6 12.4,10 8,14.4 8.8,15.3 14.1,10 8.8,4.7 		"/>
	</g>
</g>
</svg>
