<?xml version="1.0" encoding="utf-8"?>
<!-- Generator: Adobe Illustrator 22.1.0, SVG Export Plug-In . SVG Version: 6.00 Build 0)  -->
<svg version="1.1" baseProfile="tiny" id="Layer_1" xmlns="http://www.w3.org/2000/svg" xmlns:xlink="http://www.w3.org/1999/xlink"
	 x="0px" y="0px" viewBox="0 0 50 50" xml:space="preserve">
<g>
	<path fill="#FFFFFF" d="M42,8c-4.5-4.5-10.6-7-17-7S12.6,3.5,8,8c-4.5,4.5-7,10.6-7,17s2.5,12.4,7,17c4.5,4.5,10.6,7,17,7
		s12.4-2.5,17-7c4.5-4.5,7-10.6,7-17S46.5,12.6,42,8z M25,46C13.4,46,4,36.6,4,25S13.4,4,25,4s21,9.4,21,21S36.6,46,25,46z"/>
	<polygon fill="#FFFFFF" points="20.1,14.4 30.7,25 20.1,35.6 22.2,37.7 34.9,25 22.2,12.3 	"/>
</g>
</svg>
